<svg width="177" height="177" viewBox="0 0 177 177" fill="none" xmlns="http://www.w3.org/2000/svg">
<g opacity="0.8">
<circle r="15.5" transform="matrix(-0.84209 0.539337 0.539337 0.84209 95.4992 136.903)" fill="white"/>
<circle r="15.5" transform="matrix(-0.84209 0.539337 0.539337 0.84209 95.4992 136.903)" fill="white"/>
</g>
<path d="M85.2716 141.486C77.2062 143.045 69.0379 143.963 60.8442 144.235C57.0696 144.361 55.1824 144.424 53.9582 143.73C52.8076 143.079 52.1036 142.225 51.6826 140.971C51.2347 139.638 51.7457 137.401 52.7678 132.926C55.0459 122.953 54.6427 112.496 51.4918 102.637L50.1247 98.3373L50.027 98.0302C46.9191 88.2558 47.8525 77.6372 52.6218 68.5104C57.3911 59.3836 65.6056 52.4963 75.4582 49.3636C85.3109 46.2308 95.9946 47.1093 105.159 51.8057C114.324 56.5021 121.218 64.6317 124.326 74.4062L125.791 79.013C128.914 88.8817 134.626 97.6512 142.247 104.477C145.666 107.538 147.375 109.069 147.78 110.417C148.16 111.683 148.079 112.787 147.516 113.984C146.917 115.257 145.34 116.295 142.187 118.372C135.413 122.833 128.223 126.809 120.65 130.237M85.2716 141.486C97.463 139.132 109.338 135.356 120.65 130.237L85.2716 141.486ZM85.2716 141.486L120.65 130.237L85.2716 141.486Z" fill="white"/>
<path d="M85.2716 141.486C77.2062 143.045 69.0379 143.963 60.8442 144.235C57.0696 144.361 55.1824 144.424 53.9582 143.73C52.8076 143.079 52.1036 142.225 51.6826 140.971C51.2347 139.638 51.7457 137.401 52.7678 132.926C55.0459 122.953 54.6427 112.496 51.4918 102.637L50.1247 98.3373L50.027 98.0302C46.9191 88.2558 47.8525 77.6372 52.6218 68.5104C57.3911 59.3836 65.6056 52.4963 75.4582 49.3636C85.3109 46.2308 95.9946 47.1093 105.159 51.8057C114.324 56.5021 121.218 64.6317 124.326 74.4062L125.791 79.013C128.914 88.8817 134.626 97.6512 142.247 104.477C145.666 107.538 147.375 109.069 147.78 110.417C148.16 111.683 148.079 112.787 147.516 113.984C146.917 115.257 145.34 116.295 142.187 118.372C135.413 122.833 128.223 126.809 120.65 130.237M85.2716 141.486C97.463 139.132 109.338 135.356 120.65 130.237L85.2716 141.486ZM85.2716 141.486L120.65 130.237L85.2716 141.486Z" fill="white"/>
<path d="M85.2716 141.486C77.2062 143.045 69.0379 143.963 60.8442 144.235C57.0696 144.361 55.1824 144.424 53.9582 143.73C52.8076 143.079 52.1036 142.225 51.6826 140.971C51.2347 139.638 51.7457 137.401 52.7678 132.926C55.0459 122.953 54.6427 112.496 51.4918 102.637L50.1247 98.3373L50.027 98.0302C46.9191 88.2558 47.8525 77.6372 52.6218 68.5104C57.3911 59.3836 65.6056 52.4963 75.4582 49.3636C85.3109 46.2308 95.9946 47.1093 105.159 51.8057C114.324 56.5021 121.218 64.6317 124.326 74.4062L125.791 79.013C128.914 88.8817 134.626 97.6512 142.247 104.477C145.666 107.538 147.375 109.069 147.78 110.417C148.16 111.683 148.079 112.787 147.516 113.984C146.917 115.257 145.34 116.295 142.187 118.372C135.413 122.833 128.223 126.809 120.65 130.237M85.2716 141.486C97.463 139.132 109.338 135.356 120.65 130.237L85.2716 141.486ZM85.2716 141.486L120.65 130.237L85.2716 141.486Z" fill="white"/>
<rect x="21" y="20" width="135" height="19" rx="9.5" fill="white"/>
</svg>
